<svg width="48" height="53" viewBox="0 0 48 53" fill="none" xmlns="http://www.w3.org/2000/svg">
<path d="M46.878 13.2501C45.3801 10.6672 26.9926 0 23.9981 0C21.0044 0 2.60973 10.6405 1.12033 13.2501C-0.369299 15.8596 -0.377583 37.1414 1.12033 39.7512C2.61813 42.3596 21.0065 53 23.9981 53C26.9895 53 45.3802 42.3463 46.8771 39.7501C48.3736 37.1539 48.3747 15.8328 46.878 13.2501ZM30.1971 42.8782C29.7876 42.8782 25.9681 39.1755 26.2689 38.873C26.3588 38.7832 26.9161 38.72 28.0831 38.6836C28.0831 35.9686 28.1441 31.5836 28.1803 29.7481C28.1846 29.5391 28.1348 29.3931 28.1348 29.1425H19.8724C19.8724 29.8775 19.825 32.8898 20.0141 36.6869C20.0377 37.1567 19.8508 37.3036 19.4207 37.3016C18.3734 37.2987 17.3254 37.2902 16.2772 37.2934C15.8535 37.2944 15.6704 37.1351 15.6839 36.6611C15.7789 33.1996 15.9899 27.9635 15.6685 14.6464V14.3181C14.6689 14.2819 13.9752 14.2188 13.8842 14.1278C13.5823 13.8255 17.4546 10.1228 17.8629 10.1228C18.2723 10.1228 22.1188 13.8265 21.8189 14.1278C21.7289 14.2178 21.0023 14.2819 20.0854 14.3181V14.6453C19.8352 17.3109 19.8756 22.8841 19.8136 25.5549H28.11C28.11 25.0837 28.1503 21.9587 27.986 16.8968C27.9756 16.5458 28.0842 16.3615 28.4211 16.3585C29.5653 16.3502 30.7107 16.345 31.8561 16.3522C32.2137 16.3544 32.3284 16.5303 32.3212 16.9091C31.9439 36.7106 32.2529 35.3287 32.2529 38.6824C33.1699 38.7187 33.9916 38.782 34.0817 38.8731C34.3795 39.1744 30.6064 42.8782 30.1971 42.8782V42.8782Z" fill="#F5F5F5"/>
</svg>
